<?xml version="1.0" standalone="no"?>
<!DOCTYPE svg PUBLIC "-//W3C//DTD SVG 20010904//EN"
 "http://www.w3.org/TR/2001/REC-SVG-20010904/DTD/svg10.dtd">
<svg version="1.0" xmlns="http://www.w3.org/2000/svg"
 width="606.000000pt" height="106.000000pt" viewBox="0 0 606.000000 106.000000"
 preserveAspectRatio="xMidYMid meet">

<g transform="translate(0.000000,106.000000) scale(0.100000,-0.100000)"
fill="#000000" stroke="none">
<path d="M62 1008 c-17 -17 -17 -939 0 -956 17 -17 389 -17 406 0 7 7 12 29
12 50 l0 38 60 0 60 0 0 -39 c0 -21 6 -43 13 -49 19 -16 1255 -16 1274 0 10 8
17 8 25 0 17 -17 769 -17 786 0 9 9 15 9 24 0 17 -17 739 -17 756 0 9 9 15 9
24 0 17 -17 839 -17 856 0 9 9 15 9 24 0 17 -17 739 -17 756 0 9 9 15 9 24 0
17 -17 389 -17 406 0 9 9 15 9 24 0 17 -17 389 -17 406 0 17 17 17 939 0 956
-17 17 -389 17 -406 0 -9 -9 -15 -9 -24 0 -17 17 -389 17 -406 0 -9 -9 -15 -9
-24 0 -17 17 -739 17 -756 0 -9 -9 -15 -9 -24 0 -17 17 -839 17 -856 0 -9 -9
-15 -9 -24 0 -17 17 -739 17 -756 0 -9 -9 -15 -9 -24 0 -17 17 -769 17 -786 0
-8 -8 -15 -8 -25 0 -19 16 -1255 16 -1274 0 -9 -7 -13 -42 -13 -124 l0 -114
-60 0 -60 0 0 113 c0 75 -4 117 -12 125 -17 17 -389 17 -406 0z m328 -253 l0
-175 25 0 c23 0 25 3 25 50 l0 50 100 0 100 0 0 -50 c0 -47 2 -50 25 -50 16 0
25 6 25 15 0 8 10 16 23 16 l22 2 -22 4 c-23 4 -23 7 -23 159 l0 154 125 0
125 0 0 -155 c0 -117 -3 -155 -12 -156 -10 0 -10 -2 0 -6 9 -3 12 -51 12 -189
l0 -184 -37 -2 -38 -1 38 -4 c38 -4 48 -16 22 -27 -13 -4 -13 -9 -4 -24 7 -11
9 -27 6 -36 -9 -23 -142 -24 -151 0 -3 8 -11 12 -17 9 -6 -4 -5 1 2 13 23 37
-20 84 -46 49 -10 -15 -13 -14 -27 3 -9 10 -18 26 -21 37 -4 16 -5 15 -6 -3
-1 -17 -7 -21 -36 -20 -35 1 -35 1 -35 48 l0 48 -50 0 -50 0 0 -45 c0 -50 6
-47 -100 -47 -36 0 -50 -2 -32 -5 31 -4 32 -6 32 -54 l0 -49 -125 0 -125 0 0
175 c0 160 2 175 18 176 16 1 16 2 0 6 -16 4 -18 23 -18 224 l0 219 125 0 125
0 0 -175z m1420 -105 l0 -280 -49 0 c-55 0 -62 6 -72 65 -6 38 -7 37 -8 -17
l-1 -58 65 0 65 0 0 -117 c-1 -86 -3 -113 -11 -100 -6 9 -15 15 -20 11 -6 -3
-5 3 2 14 22 36 -20 84 -45 51 -18 -24 -44 -11 -49 24 -2 18 -5 -1 -5 -40 l-2
-73 -84 0 c-76 0 -84 2 -89 21 -4 15 -2 19 9 15 20 -8 17 0 -11 28 -17 17 -33
24 -52 21 -16 -1 -27 -7 -26 -13 11 -50 10 -61 -4 -66 -8 -3 -71 -6 -139 -6
-122 0 -124 0 -125 23 l-2 22 -4 -22 c-3 -14 -12 -23 -24 -23 -18 0 -19 13
-19 400 l0 400 350 0 350 0 0 -280z m810 190 l0 -90 -27 -1 -28 -1 30 -8 c17
-4 -52 -8 -162 -9 l-193 -1 0 -50 0 -50 190 0 190 0 0 -70 c0 -66 -1 -70 -22
-71 l-23 -2 23 -4 c22 -4 22 -6 22 -179 l0 -174 -44 0 c-36 0 -45 4 -49 21 -4
15 -2 19 9 15 20 -8 17 0 -11 28 -17 17 -33 24 -52 21 -16 -1 -27 -7 -26 -13
11 -50 10 -61 -4 -66 -8 -3 -71 -6 -139 -6 -122 0 -124 0 -125 23 l-2 22 -4
-22 c-4 -22 -9 -23 -94 -23 l-89 0 0 100 0 100 100 0 100 0 2 -37 1 -38 4 37
4 38 85 0 84 0 0 50 0 50 -150 0 c-136 0 -150 2 -151 18 -1 16 -2 16 -6 0 -3
-13 -15 -18 -39 -18 l-34 0 0 66 c0 36 5 74 10 85 7 11 7 19 1 19 -5 0 -10 68
-11 165 l-1 164 316 1 315 0 0 -90z m780 -95 l0 -185 -40 0 c-38 0 -40 -2 -40
-30 0 -28 2 -30 40 -30 l40 0 0 -185 -1 -185 -100 0 c-96 0 -99 1 -100 23 l-2
22 -4 -22 c-4 -22 -9 -23 -99 -23 -65 0 -93 3 -89 11 4 5 0 18 -8 27 -8 9 -13
25 -12 34 3 15 0 16 -16 8 -15 -9 -17 -14 -7 -29 23 -37 4 -51 -71 -51 -83 0
-82 -2 -88 133 l-5 97 74 2 73 2 -72 3 -72 4 -1 279 0 280 300 0 300 0 0 -185z
m880 30 c0 -117 -3 -155 -12 -155 -9 0 -8 -4 2 -11 12 -8 12 -12 2 -16 -9 -4
-10 -8 -2 -18 12 -15 10 -36 -5 -47 -6 -5 -5 -8 3 -8 6 0 12 -7 12 -15 0 -8
-6 -15 -12 -16 -10 0 -10 -2 0 -6 9 -3 12 -49 12 -179 l0 -174 -30 0 c-24 0
-30 4 -31 23 l-2 22 -4 -22 c-4 -22 -9 -23 -99 -23 -65 0 -93 3 -89 11 4 5 0
18 -8 27 -8 9 -13 25 -12 34 3 15 0 16 -16 8 -15 -9 -17 -14 -7 -29 6 -10 8
-26 5 -35 -9 -23 -142 -24 -151 0 -3 8 -11 12 -17 9 -6 -4 -5 1 2 13 22 36
-20 84 -45 51 -18 -24 -44 -11 -49 24 -2 18 -5 -1 -5 -40 l-2 -73 -70 0 -70 0
0 400 0 400 350 0 350 -1 0 -154z m780 0 c0 -117 -3 -155 -12 -155 -8 0 -9 -3
-3 -8 6 -4 12 -36 14 -70 l3 -64 -68 7 c-38 3 -78 7 -89 8 -11 1 -23 7 -27 12
-4 6 -8 2 -8 -7 0 -15 9 -18 55 -18 52 0 55 -1 55 -25 0 -22 4 -25 39 -25 l40
0 0 -150 c1 -101 -2 -150 -9 -150 -6 0 -8 5 -5 11 4 5 0 18 -8 27 -8 9 -13 25
-12 34 3 15 0 16 -16 8 -15 -9 -17 -14 -7 -29 6 -10 8 -26 5 -35 -9 -23 -142
-24 -151 0 -3 9 -11 12 -18 8 -10 -6 -11 -4 0 7 18 19 15 46 -6 61 -15 10 -19
27 -21 76 l-2 62 88 2 88 2 -87 3 -88 4 0 29 c0 27 -3 30 -30 30 -24 0 -30 4
-31 23 l-2 22 -4 -22 c-2 -13 -11 -23 -19 -23 -14 0 -19 -87 -14 -247 l1 -53
-69 0 c-62 0 -70 2 -75 21 -4 15 -2 19 9 15 20 -8 17 0 -11 28 -17 17 -33 24
-52 21 -16 -1 -27 -7 -26 -13 8 -36 11 -62 8 -62 -2 0 -10 -3 -19 -6 -13 -5
-16 2 -16 45 0 49 1 51 28 52 l27 2 -27 4 -28 4 0 345 0 344 300 0 300 0 0
-155z m430 95 l0 -60 50 0 50 0 0 -65 0 -65 40 0 c38 0 40 2 40 30 0 21 5 30
18 31 16 1 16 2 0 6 -16 4 -18 17 -18 94 l0 89 125 0 125 0 0 -214 c0 -191 -7
-254 -23 -214 -3 8 -6 6 -6 -4 -1 -10 6 -18 14 -18 12 0 15 -13 15 -55 l0 -55
-64 0 c-72 0 -77 4 -87 65 -6 38 -7 37 -8 -17 l-1 -58 80 0 80 0 0 -115 c0
-106 -1 -115 -19 -115 -10 0 -22 7 -25 16 -3 8 -11 12 -17 9 -6 -4 -5 1 2 13
22 36 -20 84 -45 51 -18 -24 -44 -11 -49 24 -2 18 -5 -1 -5 -40 l-2 -73 -45 0
-45 0 0 60 0 60 -50 0 -50 0 0 65 0 65 -40 0 -40 0 0 -70 0 -70 -32 -2 -33 -1
33 -4 c31 -4 32 -5 32 -54 l0 -49 -125 0 -125 0 0 175 c0 160 2 175 18 176 16
1 16 2 0 6 -16 4 -18 23 -18 224 l0 219 125 0 125 0 0 -60z m-3784 -707 c-8
-40 -16 -40 -16 1 0 22 4 35 10 31 6 -3 8 -18 6 -32z m2040 0 c-8 -40 -16 -40
-16 1 0 22 4 35 10 31 6 -3 8 -18 6 -32z m2040 0 c-8 -40 -16 -40 -16 1 0 22
4 35 10 31 6 -3 8 -18 6 -32z m-5054 20 c-10 -4 -10 -8 0 -21 12 -14 10 -14
-10 -3 -25 13 -21 31 6 30 11 0 13 -2 4 -6z m1020 0 c-10 -4 -10 -8 0 -21 12
-14 10 -14 -10 -3 -25 13 -21 31 6 30 11 0 13 -2 4 -6z m2040 0 c-10 -4 -10
-8 0 -21 12 -14 10 -14 -10 -3 -25 13 -21 31 6 30 11 0 13 -2 4 -6z m2040 0
c-10 -4 -10 -8 0 -21 12 -14 10 -14 -10 -3 -25 13 -21 31 6 30 11 0 13 -2 4
-6z"/>
<path d="M830 674 c0 -2 9 -8 20 -14 15 -8 18 -8 14 3 -4 11 -34 21 -34 11z"/>
<path d="M198 613 c12 -2 32 -2 45 0 12 2 2 4 -23 4 -25 0 -35 -2 -22 -4z"/>
<path d="M244 586 c-4 -11 -12 -13 -31 -5 -33 12 -38 11 -23 -6 6 -8 9 -19 5
-25 -3 -5 0 -10 7 -11 7 0 4 -5 -7 -10 -18 -8 -18 -8 5 -6 14 1 25 8 25 15 0
7 5 16 11 20 11 8 27 42 18 42 -2 0 -7 -6 -10 -14z"/>
<path d="M791 498 c-1 -15 8 -18 57 -17 l57 2 -45 7 c-25 4 -48 6 -52 4 -3 -2
-9 2 -11 8 -3 8 -6 6 -6 -4z"/>
<path d="M188 483 c7 -3 16 -2 19 1 4 3 -2 6 -13 5 -11 0 -14 -3 -6 -6z"/>
<path d="M548 483 c6 -2 18 -2 25 0 6 3 1 5 -13 5 -14 0 -19 -2 -12 -5z"/>
<path d="M648 483 c6 -2 18 -2 25 0 6 3 1 5 -13 5 -14 0 -19 -2 -12 -5z"/>
<path d="M661 418 l-1 -58 123 2 122 2 -105 3 c-58 2 -109 8 -114 13 -5 5 -13
29 -17 52 -6 43 -7 43 -8 -14z"/>
<path d="M153 300 c0 -25 2 -35 4 -22 2 12 2 32 0 45 -2 12 -4 2 -4 -23z"/>
<path d="M151 154 c0 -11 3 -14 6 -6 3 7 2 16 -1 19 -3 4 -6 -2 -5 -13z"/>
<path d="M1568 743 c12 -2 30 -2 40 0 9 3 -1 5 -23 4 -22 0 -30 -2 -17 -4z"/>
<path d="M1638 743 c7 -3 16 -2 19 1 4 3 -2 6 -13 5 -11 0 -14 -3 -6 -6z"/>
<path d="M1360 530 l0 -200 100 0 100 0 0 74 c0 69 2 75 23 79 l22 4 -22 2
c-23 1 -23 4 -23 121 l0 120 -100 0 -100 0 0 -200z m110 0 c0 -67 -4 -110 -10
-110 -6 0 -10 43 -10 110 0 67 4 110 10 110 6 0 10 -43 10 -110z"/>
<path d="M1128 613 c7 -3 16 -2 19 1 4 3 -2 6 -13 5 -11 0 -14 -3 -6 -6z"/>
<path d="M1218 613 c12 -2 32 -2 45 0 12 2 2 4 -23 4 -25 0 -35 -2 -22 -4z"/>
<path d="M1718 613 c6 -2 18 -2 25 0 6 3 1 5 -13 5 -14 0 -19 -2 -12 -5z"/>
<path d="M1264 586 c-4 -11 -12 -13 -31 -5 -33 12 -38 11 -23 -6 6 -8 9 -19 5
-25 -3 -5 0 -10 7 -11 7 0 4 -5 -7 -10 -18 -8 -18 -8 5 -6 14 1 25 8 25 15 0
7 5 16 11 20 11 8 27 42 18 42 -2 0 -7 -6 -10 -14z"/>
<path d="M1158 483 c6 -2 18 -2 25 0 6 3 1 5 -13 5 -14 0 -19 -2 -12 -5z"/>
<path d="M1208 483 c7 -3 16 -2 19 1 4 3 -2 6 -13 5 -11 0 -14 -3 -6 -6z"/>
<path d="M1668 483 c6 -2 18 -2 25 0 6 3 1 5 -13 5 -14 0 -19 -2 -12 -5z"/>
<path d="M1173 300 c0 -25 2 -35 4 -22 2 12 2 32 0 45 -2 12 -4 2 -4 -23z"/>
<path d="M1550 240 c0 -6 7 -10 15 -10 8 0 15 2 15 4 0 2 -7 6 -15 10 -8 3
-15 1 -15 -4z"/>
<path d="M1373 233 c15 -2 39 -2 55 0 15 2 2 4 -28 4 -30 0 -43 -2 -27 -4z"/>
<path d="M1488 233 c6 -2 18 -2 25 0 6 3 1 5 -13 5 -14 0 -19 -2 -12 -5z"/>
<path d="M1126 157 c3 -10 9 -15 12 -12 3 3 0 11 -7 18 -10 9 -11 8 -5 -6z"/>
<path d="M1171 154 c0 -11 3 -14 6 -6 3 7 2 16 -1 19 -3 4 -6 -2 -5 -13z"/>
<path d="M2062 870 c0 -14 2 -19 5 -12 2 6 2 18 0 25 -3 6 -5 1 -5 -13z"/>
<path d="M2068 743 c7 -3 16 -2 19 1 4 3 -2 6 -13 5 -11 0 -14 -3 -6 -6z"/>
<path d="M2148 613 c7 -3 16 -2 19 1 4 3 -2 6 -13 5 -11 0 -14 -3 -6 -6z"/>
<path d="M2238 613 c12 -2 32 -2 45 0 12 2 2 4 -23 4 -25 0 -35 -2 -22 -4z"/>
<path d="M2284 586 c-4 -11 -12 -13 -31 -5 -33 12 -38 11 -23 -6 6 -8 9 -19 5
-25 -3 -5 0 -10 7 -11 7 0 4 -5 -7 -10 -18 -8 -18 -8 5 -6 14 1 25 8 25 15 0
7 5 16 11 20 11 8 27 42 18 42 -2 0 -7 -6 -10 -14z"/>
<path d="M2078 483 c7 -3 16 -2 19 1 4 3 -2 6 -13 5 -11 0 -14 -3 -6 -6z"/>
<path d="M2178 483 c6 -2 18 -2 25 0 6 3 1 5 -13 5 -14 0 -19 -2 -12 -5z"/>
<path d="M2228 483 c7 -3 16 -2 19 1 4 3 -2 6 -13 5 -11 0 -14 -3 -6 -6z"/>
<path d="M2570 240 c0 -6 7 -10 15 -10 8 0 15 2 15 4 0 2 -7 6 -15 10 -8 3
-15 1 -15 -4z"/>
<path d="M2013 233 c9 -2 23 -2 30 0 6 3 -1 5 -18 5 -16 0 -22 -2 -12 -5z"/>
<path d="M2393 233 c15 -2 39 -2 55 0 15 2 2 4 -28 4 -30 0 -43 -2 -27 -4z"/>
<path d="M2508 233 c6 -2 18 -2 25 0 6 3 1 5 -13 5 -14 0 -19 -2 -12 -5z"/>
<path d="M2146 157 c3 -10 9 -15 12 -12 3 3 0 11 -7 18 -10 9 -11 8 -5 -6z"/>
<path d="M2191 154 c0 -11 3 -14 6 -6 3 7 2 16 -1 19 -3 4 -6 -2 -5 -13z"/>
<path d="M3082 870 c0 -14 2 -19 5 -12 2 6 2 18 0 25 -3 6 -5 1 -5 -13z"/>
<path d="M3088 743 c7 -3 16 -2 19 1 4 3 -2 6 -13 5 -11 0 -14 -3 -6 -6z"/>
<path d="M3050 680 l0 -50 50 0 50 0 0 50 0 50 -50 0 -50 0 0 -50z"/>
<path d="M2870 674 c0 -2 9 -8 20 -14 15 -8 18 -8 14 3 -4 11 -34 21 -34 11z"/>
<path d="M3168 613 c7 -3 16 -2 19 1 4 3 -2 6 -13 5 -11 0 -14 -3 -6 -6z"/>
<path d="M3258 613 c12 -2 32 -2 45 0 12 2 2 4 -23 4 -25 0 -35 -2 -22 -4z"/>
<path d="M3010 585 c0 -8 2 -15 4 -15 2 0 6 7 10 15 3 8 1 15 -4 15 -6 0 -10
-7 -10 -15z"/>
<path d="M3304 586 c-4 -11 -12 -13 -31 -5 -33 12 -38 11 -23 -6 6 -8 9 -19 5
-25 -3 -5 0 -10 7 -11 7 0 4 -5 -7 -10 -18 -8 -18 -8 5 -6 14 1 25 8 25 15 0
7 5 16 11 20 11 8 27 42 18 42 -2 0 -7 -6 -10 -14z"/>
<path d="M2831 498 c-1 -15 8 -18 57 -17 l57 2 -45 7 c-25 4 -48 6 -52 4 -3
-2 -9 2 -11 8 -3 8 -6 6 -6 -4z"/>
<path d="M3098 483 c7 -3 16 -2 19 1 4 3 -2 6 -13 5 -11 0 -14 -3 -6 -6z"/>
<path d="M3198 483 c6 -2 18 -2 25 0 6 3 1 5 -13 5 -14 0 -19 -2 -12 -5z"/>
<path d="M3248 483 c7 -3 16 -2 19 1 4 3 -2 6 -13 5 -11 0 -14 -3 -6 -6z"/>
<path d="M3081 448 c0 -10 -8 -18 -16 -18 -11 0 -15 -12 -15 -50 l0 -50 50 0
50 0 0 50 c0 49 -1 50 -29 50 -20 0 -31 6 -34 18 -4 16 -5 16 -6 0z"/>
<path d="M3213 300 c0 -25 2 -35 4 -22 2 12 2 32 0 45 -2 12 -4 2 -4 -23z"/>
<path d="M2933 233 c15 -2 37 -2 50 0 12 2 0 4 -28 4 -27 0 -38 -2 -22 -4z"/>
<path d="M3033 233 c9 -2 23 -2 30 0 6 3 -1 5 -18 5 -16 0 -22 -2 -12 -5z"/>
<path d="M3166 157 c3 -10 9 -15 12 -12 3 3 0 11 -7 18 -10 9 -11 8 -5 -6z"/>
<path d="M3211 154 c0 -11 3 -14 6 -6 3 7 2 16 -1 19 -3 4 -6 -2 -5 -13z"/>
<path d="M4102 870 c0 -14 2 -19 5 -12 2 6 2 18 0 25 -3 6 -5 1 -5 -13z"/>
<path d="M3608 743 c12 -2 30 -2 40 0 9 3 -1 5 -23 4 -22 0 -30 -2 -17 -4z"/>
<path d="M3678 743 c7 -3 16 -2 19 1 4 3 -2 6 -13 5 -11 0 -14 -3 -6 -6z"/>
<path d="M4108 743 c7 -3 16 -2 19 1 4 3 -2 6 -13 5 -11 0 -14 -3 -6 -6z"/>
<path d="M3829 608 c0 -68 0 -149 1 -181 l1 -57 -40 0 c-45 0 -52 8 -62 65 -6
38 -7 37 -8 -17 l-1 -58 55 0 c42 0 55 -3 55 -15 0 -12 18 -15 100 -15 88 0
100 2 101 18 0 9 0 61 -1 114 -1 54 4 106 10 118 7 13 7 20 0 20 -5 0 -9 3 -9
8 1 4 1 33 0 65 l-1 57 -100 0 -100 0 -1 -122z m111 -78 c0 -67 -4 -110 -10
-110 -6 0 -10 43 -10 110 0 67 4 110 10 110 6 0 10 -43 10 -110z"/>
<path d="M3758 613 c6 -2 18 -2 25 0 6 3 1 5 -13 5 -14 0 -19 -2 -12 -5z"/>
<path d="M4188 613 c7 -3 16 -2 19 1 4 3 -2 6 -13 5 -11 0 -14 -3 -6 -6z"/>
<path d="M3608 483 c6 -2 18 -2 25 0 6 3 1 5 -13 5 -14 0 -19 -2 -12 -5z"/>
<path d="M3708 483 c6 -2 18 -2 25 0 6 3 1 5 -13 5 -14 0 -19 -2 -12 -5z"/>
<path d="M4118 483 c7 -3 16 -2 19 1 4 3 -2 6 -13 5 -11 0 -14 -3 -6 -6z"/>
<path d="M4218 483 c6 -2 18 -2 25 0 6 3 1 5 -13 5 -14 0 -19 -2 -12 -5z"/>
<path d="M4101 420 c0 -32 2 -40 9 -29 5 9 6 28 0 45 -8 27 -8 26 -9 -16z"/>
<path d="M4233 300 c0 -25 2 -35 4 -22 2 12 2 32 0 45 -2 12 -4 2 -4 -23z"/>
<path d="M3590 240 c0 -6 7 -10 15 -10 8 0 15 2 15 4 0 2 -7 6 -15 10 -8 3
-15 1 -15 -4z"/>
<path d="M3953 233 c15 -2 37 -2 50 0 12 2 0 4 -28 4 -27 0 -38 -2 -22 -4z"/>
<path d="M4053 233 c9 -2 23 -2 30 0 6 3 -1 5 -18 5 -16 0 -22 -2 -12 -5z"/>
<path d="M4186 157 c3 -10 9 -15 12 -12 3 3 0 11 -7 18 -10 9 -11 8 -5 -6z"/>
<path d="M4231 154 c0 -11 3 -14 6 -6 3 7 2 16 -1 19 -3 4 -6 -2 -5 -13z"/>
<path d="M4628 743 c12 -2 30 -2 40 0 9 3 -1 5 -23 4 -22 0 -30 -2 -17 -4z"/>
<path d="M4698 743 c7 -3 16 -2 19 1 4 3 -2 6 -13 5 -11 0 -14 -3 -6 -6z"/>
<path d="M4710 680 l0 -50 50 0 50 0 0 50 0 50 -50 0 -50 0 0 -50z"/>
<path d="M4910 674 c0 -2 9 -8 20 -14 15 -8 18 -8 14 3 -4 11 -34 21 -34 11z"/>
<path d="M4778 613 c6 -2 18 -2 25 0 6 3 1 5 -13 5 -14 0 -19 -2 -12 -5z"/>
<path d="M4628 483 c6 -2 18 -2 25 0 6 3 1 5 -13 5 -14 0 -19 -2 -12 -5z"/>
<path d="M4728 483 c6 -2 18 -2 25 0 6 3 1 5 -13 5 -14 0 -19 -2 -12 -5z"/>
<path d="M4610 240 c0 -6 7 -10 15 -10 8 0 15 2 15 4 0 2 -7 6 -15 10 -8 3
-15 1 -15 -4z"/>
<path d="M4548 233 c6 -2 18 -2 25 0 6 3 1 5 -13 5 -14 0 -19 -2 -12 -5z"/>
<path d="M4973 233 c15 -2 37 -2 50 0 12 2 0 4 -28 4 -27 0 -38 -2 -22 -4z"/>
<path d="M5718 743 c7 -3 16 -2 19 1 4 3 -2 6 -13 5 -11 0 -14 -3 -6 -6z"/>
<path d="M5298 613 c12 -2 32 -2 45 0 12 2 2 4 -23 4 -25 0 -35 -2 -22 -4z"/>
<path d="M5798 613 c6 -2 18 -2 25 0 6 3 1 5 -13 5 -14 0 -19 -2 -12 -5z"/>
<path d="M5344 586 c-4 -11 -12 -13 -31 -5 -33 12 -38 11 -23 -6 6 -8 9 -19 5
-25 -3 -5 0 -10 7 -11 7 0 4 -5 -7 -10 -18 -8 -18 -8 5 -6 14 1 25 8 25 15 0
7 5 16 11 20 11 8 27 42 18 42 -2 0 -7 -6 -10 -14z"/>
<path d="M5288 483 c7 -3 16 -2 19 1 4 3 -2 6 -13 5 -11 0 -14 -3 -6 -6z"/>
<path d="M5648 483 c6 -2 18 -2 25 0 6 3 1 5 -13 5 -14 0 -19 -2 -12 -5z"/>
<path d="M5748 483 c6 -2 18 -2 25 0 6 3 1 5 -13 5 -14 0 -19 -2 -12 -5z"/>
<path d="M5253 300 c0 -25 2 -35 4 -22 2 12 2 32 0 45 -2 12 -4 2 -4 -23z"/>
<path d="M5251 154 c0 -11 3 -14 6 -6 3 7 2 16 -1 19 -3 4 -6 -2 -5 -13z"/>
</g>
</svg>
